<svg xmlns="http://www.w3.org/2000/svg" xmlns:xlink="http://www.w3.org/1999/xlink" version="1.1" viewBox="64.31 17.8 377.48 474.12">
<g id="surface1">
<path style=" stroke:none;fill-rule:nonzero;fill:rgb(100%,56.862748%,0%);fill-opacity:1;" d="M 182.542969 478.292969 C 202.382812 486.277344 223.902344 491.015625 246.503906 491.804688 C 277.085938 492.871094 306.167969 486.550781 332.167969 474.539062 C 300.992188 462.289062 272.753906 444.375 248.65625 422.101562 C 233.035156 447.113281 209.929688 466.871094 182.542969 478.292969 Z M 182.542969 478.292969 "/>
<path style=" stroke:none;fill-rule:nonzero;fill:rgb(100%,76.862746%,0%);fill-opacity:1;" d="M 248.652344 422.109375 C 193.640625 371.234375 160.269531 297.59375 163.089844 216.824219 C 163.179688 214.203125 163.320312 211.582031 163.480469 208.960938 C 153.628906 206.414062 143.34375 204.859375 132.757812 204.488281 C 117.605469 203.960938 102.933594 205.839844 89.082031 209.738281 C 74.398438 235.460938 65.535156 264.976562 64.429688 296.59375 C 61.582031 378.179688 110.957031 449.46875 182.539062 478.300781 C 209.925781 466.875 233.03125 447.144531 248.652344 422.109375 Z M 248.652344 422.109375 "/>
<path style=" stroke:none;fill-rule:nonzero;fill:rgb(100%,56.862748%,0%);fill-opacity:1;" d="M 248.652344 422.105469 C 261.441406 401.640625 269.195312 377.644531 270.101562 351.789062 C 272.472656 283.785156 226.757812 225.28125 163.484375 208.957031 C 163.320312 211.578125 163.183594 214.199219 163.089844 216.824219 C 160.269531 297.589844 193.640625 371.230469 248.652344 422.105469 Z M 248.652344 422.105469 "/>
<path style=" stroke:none;fill-rule:nonzero;fill:rgb(86.666667%,17.254902%,0%);fill-opacity:1;" d="M 263.023438 17.800781 C 226.988281 46.667969 198.53125 84.738281 181.3125 128.589844 C 171.457031 153.710938 165.261719 180.691406 163.453125 208.976562 C 226.726562 225.300781 272.445312 283.800781 270.070312 351.804688 C 269.167969 377.660156 261.390625 401.632812 248.621094 422.125 C 272.722656 444.417969 300.957031 462.308594 332.136719 474.558594 C 394.71875 445.632812 439.121094 383.382812 441.691406 309.757812 C 443.355469 262.054688 425.027344 219.539062 399.128906 183.652344 C 371.78125 145.699219 263.023438 17.800781 263.023438 17.800781 Z M 263.023438 17.800781 "/>
</g>
</svg>